<svg xmlns="http://www.w3.org/2000/svg" width="512" height="512"><path style="fill:#272727;stroke:none" d="M0 0v79h79V0H0z"/><path style="fill:#fff;stroke:none" d="M79 0v79H0v33h79v284H0v34h79v82h34v-82h281v82h36v-82h82v-34h-82V112h82V79h-82V0h-36v79H113V0H79z"/><path style="fill:#272727;stroke:none" d="M113 0v79h281V0H113m317 0v79h82V0h-82z"/><path style="fill:#f1ad0f;stroke:none" d="M0 112v284h79V112H0z"/><path style="fill:#272727;stroke:none" d="M113 112v284h281V112H113z"/><path style="fill:#7dd13f;stroke:none" d="M430 112v284h82V112h-82z"/><path style="fill:#b5b5b5;stroke:none" d="M146 173c3.959 1.661 8.74 1 13 1h24c-3.959-1.661-8.74-1-13-1h-24z"/><path style="fill:#828282;stroke:none" d="m183 173 1 1-1-1z"/><path style="fill:#b5b5b5;stroke:none" d="M235 173c3.959 1.661 8.74 1 13 1h25c-3.959-1.661-8.74-1-13-1h-25z"/><path style="fill:#686868;stroke:none" d="m326 173 1 1-1-1z"/><path style="fill:#b5b5b5;stroke:none" d="M327 173c10.539 4.422 24.735-.682 36 2-2.435-2.786-6.484-2-10-2h-26z"/><path style="fill:#fff;stroke:none" d="M146 174c13.142 57.325 34.859 112.678 48 170h23c2.673 0 7.008.761 9.262-1.028 2.315-1.838 2.382-6.308 2.949-8.972 1.7-7.994 3.386-15.984 4.989-24 4.204-21.026 8.795-41.973 13-63 2.267-11.339 5.561-23.428 5.8-35h2c.194 9.396 2.912 18.777 4.576 28 4.226 23.425 9.556 46.658 14.224 70 1.603 8.015 3.397 15.985 5 24 .532 2.657.636 7.144 2.938 8.972 2.254 1.789 6.589 1.028 9.262 1.028h24c9.166-39.981 22.175-79.545 33.421-119 4.634-16.256 12.203-34.152 13.579-51h-24c-2.916 0-7.806-.891-10.272 1.028-2.342 1.821-2.706 6.281-3.304 8.972-1.631 7.342-3.256 14.696-5.05 22-7.486 30.485-14.399 61.19-20.374 92-3.743-9.992-4.707-21.535-6.8-32-3.871-19.358-8.07-38.652-12.001-58-1.627-8.008-3.396-15.985-4.999-24-.532-2.657-.636-7.144-2.938-8.972C269.831 173.098 264.89 174 262 174h-27c-.775 9.733-3.592 19.408-5.389 29A5033.893 5033.893 0 0 1 218 263c-2.277 11.385-5.904 23.372-6 35h-2c-.107-12.895-3.84-26.505-6.87-39-4.754-19.599-9.182-39.313-13.554-59-1.901-8.559-4.861-17.252-5.576-26h-38z"/><path style="fill:#828282;stroke:none" d="m273 174 1 1-1-1z"/><path style="fill:#959595;stroke:none" d="m326 174 1 1-1-1m-53 1 1 1-1-1z"/><path style="fill:#b5b5b5;stroke:none" d="m326 175 1 1-1-1z"/><path style="fill:#959595;stroke:none" d="m362 175 1 1-1-1m-216 1 1 1-1-1z"/><path style="fill:#686868;stroke:none" d="m184 176 1 1-1-1m50 0 1 1-1-1m128 0 1 1-1-1m-216 1 1 1-1-1z"/><path style="fill:#959595;stroke:none" d="m184 177 1 1-1-1z"/><path style="fill:#b5b5b5;stroke:none" d="M234.333 177.667c-.055.055-.111 1.111.334.666.055-.055.111-1.111-.334-.666z"/><path style="fill:#686868;stroke:none" d="m325 177 1 1-1-1z"/><path style="fill:#b5b5b5;stroke:none" d="m184 178 1 1-1-1z"/><path style="fill:#828282;stroke:none" d="m325 178 1 1-1-1z"/><path style="fill:#b5b5b5;stroke:none" d="m361 178 1 1-1-1m-214 1 1 1-1-1z"/><path style="fill:#828282;stroke:none" d="m274 179 1 1-1-1z"/><path style="fill:#b5b5b5;stroke:none" d="m325 179 1 1-1-1z"/><path style="fill:#828282;stroke:none" d="m361 179 1 1-1-1m-214 1 1 1-1-1z"/><path style="fill:#b5b5b5;stroke:none" d="m274 180 1 1-1-1z"/><path style="fill:#828282;stroke:none" d="m185 181 1 1-1-1z"/><path style="fill:#686868;stroke:none" d="m233 181 1 1-1-1z"/><path style="fill:#b5b5b5;stroke:none" d="m185 182 1 1-1-1m48.333.667c-.055.055-.111 1.111.334.666.055-.055.111-1.111-.334-.666z"/><path style="fill:#828282;stroke:none" d="m324 182 1 1-1-1z"/><path style="fill:#959595;stroke:none" d="m360 182 1 1-1-1z"/><path style="fill:#b5b5b5;stroke:none" d="m148 183 1 1-1-1z"/><path style="fill:#686868;stroke:none" d="m275 183 1 1-1-1z"/><path style="fill:#b5b5b5;stroke:none" d="m324 183 1 1-1-1z"/><path style="fill:#686868;stroke:none" d="m360 183 1 1-1-1m-212 1 1 1-1-1z"/><path style="fill:#828282;stroke:none" d="m275 184 1 1-1-1z"/><path style="fill:#686868;stroke:none" d="m186 185 1 1-1-1z"/><path style="fill:#b5b5b5;stroke:none" d="m275 185 1 1-1-1m84 0 1 1-1-1m-210 1 1 1-1-1z"/><path style="fill:#959595;stroke:none" d="m186 186 1 1-1-1z"/><path style="fill:#686868;stroke:none" d="m232 186 1 1-1-1m91 0 1 1-1-1z"/><path style="fill:#828282;stroke:none" d="m359 186 1 1-1-1m-210 1 1 1-1-1z"/><path style="fill:#b5b5b5;stroke:none" d="M232.333 187.667c-.055.055-.111 1.111.334.666.055-.055.111-1.111-.334-.666z"/><path style="fill:#959595;stroke:none" d="m323 187 1 1-1-1z"/><path style="fill:#686868;stroke:none" d="m276 188 1 1-1-1z"/><path style="fill:#b5b5b5;stroke:none" d="m323 188 1 1-1-1z"/><path style="fill:#686868;stroke:none" d="m187 189 1 1-1-1z"/><path style="fill:#828282;stroke:none" d="m276 189 1 1-1-1z"/><path style="fill:#959595;stroke:none" d="m358 189 1 1-1-1z"/><path style="fill:#b5b5b5;stroke:none" d="m150 190 1 1-1-1z"/><path style="fill:#959595;stroke:none" d="m187 190 1 1-1-1z"/><path style="fill:#b5b5b5;stroke:none" d="m276 190 1 1-1-1z"/><path style="fill:#686868;stroke:none" d="m322 190 1 1-1-1m36 0 1 1-1-1m-208 1 1 1-1-1z"/><path style="fill:#b5b5b5;stroke:none" d="m187 191 1 1-1-1z"/><path style="fill:#686868;stroke:none" d="m231 191 1 1-1-1z"/><path style="fill:#828282;stroke:none" d="m322 191 1 1-1-1z"/><path style="fill:#b5b5b5;stroke:none" d="M231.333 192.667c-.055.055-.111 1.111.334.666.055-.055.111-1.111-.334-.666M322 192l1 1-1-1m35 0 1 1-1-1m-206 1 1 1-1-1z"/><path style="fill:#686868;stroke:none" d="m277 193 1 1-1-1z"/><path style="fill:#828282;stroke:none" d="m357 193 1 1-1-1z"/><path style="fill:#959595;stroke:none" d="m151 194 1 1-1-1z"/><path style="fill:#828282;stroke:none" d="m188 194 1 1-1-1z"/><path style="fill:#959595;stroke:none" d="m277 194 1 1-1-1z"/><path style="fill:#b5b5b5;stroke:none" d="m188 195 1 1-1-1m89 0 1 1-1-1z"/><path style="fill:#828282;stroke:none" d="m321 195 1 1-1-1m-91 1v3c.696-1.554.696-1.446 0-3z"/><path style="fill:#b5b5b5;stroke:none" d="m321 196 1 1-1-1z"/><path style="fill:#959595;stroke:none" d="m356 196 1 1-1-1z"/><path style="fill:#b5b5b5;stroke:none" d="m152 197 1 1-1-1z"/><path style="fill:#686868;stroke:none" d="m356 197 1 1-1-1m-204 1 1 1-1-1m37 0 1 1-1-1m89 0 1 1-1-1z"/><path style="fill:#959595;stroke:none" d="m189 199 1 1-1-1m89 0 1 1-1-1z"/><path style="fill:#686868;stroke:none" d="m320 199 1 1-1-1z"/><path style="fill:#b5b5b5;stroke:none" d="m355 199 1 1-1-1m-202 1 1 1-1-1m125 0 1 1-1-1z"/><path style="fill:#959595;stroke:none" d="m320 200 1 1-1-1z"/><path style="fill:#828282;stroke:none" d="m355 200 1 1-1-1z"/><path style="fill:#959595;stroke:none" d="m153 201 1 1-1-1z"/><path style="fill:#828282;stroke:none" d="M229 201v3c.696-1.554.696-1.446 0-3z"/><path style="fill:#b5b5b5;stroke:none" d="m320 201 1 1-1-1z"/><path style="fill:#686868;stroke:none" d="m190 202 1 1-1-1z"/><path style="fill:#959595;stroke:none" d="m190 203 1 1-1-1z"/><path style="fill:#828282;stroke:none" d="m279 203 1 1-1-1z"/><path style="fill:#686868;stroke:none" d="m319 203 1 1-1-1z"/><path style="fill:#b5b5b5;stroke:none" d="m354 203 1 1-1-1m-200 1 1 1-1-1m36 0 1 1-1-1z"/><path style="fill:#959595;stroke:none" d="m279 204 1 1-1-1z"/><path style="fill:#828282;stroke:none" d="m319 204 1 1-1-1z"/><path style="fill:#686868;stroke:none" d="m354 204 1 1-1-1m-200 1 1 1-1-1z"/><path style="fill:#b5b5b5;stroke:none" d="m319 205 1 1-1-1m34 1 1 1-1-1m-198 1 1 1-1-1z"/><path style="fill:#828282;stroke:none" d="m191 207 1 1-1-1m37 0 1 1-1-1z"/><path style="fill:#686868;stroke:none" d="m280 207 1 1-1-1z"/><path style="fill:#959595;stroke:none" d="m353 207 1 1-1-1m-198 1 1 1-1-1z"/><path style="fill:#b5b5b5;stroke:none" d="m191 208 1 1-1-1m37.333.667c-.055.055-.111 1.111.334.666.055-.055.111-1.111-.334-.666z"/><path style="fill:#828282;stroke:none" d="m280 208 1 1-1-1m38 0 1 1-1-1z"/><path style="fill:#686868;stroke:none" d="m353 208 1 1-1-1m-198 1 1 1-1-1z"/><path style="fill:#b5b5b5;stroke:none" d="m280 209 1 1-1-1m38 0 1 1-1-1m34 1 1 1-1-1m-196 1 1 1-1-1z"/><path style="fill:#686868;stroke:none" d="m192 211 1 1-1-1z"/><path style="fill:#828282;stroke:none" d="m352 211 1 1-1-1m-196 1 1 1-1-1z"/><path style="fill:#959595;stroke:none" d="m192 212 1 1-1-1z"/><path style="fill:#828282;stroke:none" d="m227 212 1 1-1-1z"/><path style="fill:#b5b5b5;stroke:none" d="M253.667 212.333c-.445.445.611.389.666.334.445-.445-.611-.389-.666-.334z"/><path style="fill:#686868;stroke:none" d="m281 212 1 1-1-1m36 0 1 1-1-1z"/><path style="fill:#b5b5b5;stroke:none" d="M227.333 213.667c-.055.055-.111 1.111.334.666.055-.055.111-1.111-.334-.666z"/><path style="fill:#959595;stroke:none" d="M253.667 213.333c-.445.445.611.389.666.334.445-.445-.611-.389-.666-.334z"/><path style="fill:#828282;stroke:none" d="m281 213 1 1-1-1z"/><path style="fill:#959595;stroke:none" d="m317 213 1 1-1-1z"/><path style="fill:#b5b5b5;stroke:none" d="m351 213 1 1-1-1m-194 1 1 1-1-1z"/><path style="fill:#828282;stroke:none" d="M253.667 214.333c-.445.445.611.389.666.334.445-.445-.611-.389-.666-.334z"/><path style="fill:#b5b5b5;stroke:none" d="m281 214 1 1-1-1m36 0 1 1-1-1z"/><path style="fill:#959595;stroke:none" d="m351 214 1 1-1-1m-194 1 1 1-1-1z"/><path style="fill:#686868;stroke:none" d="m193 215 1 1-1-1m60.667.333c-.445.445.611.389.666.334.445-.445-.611-.389-.666-.334M351 215l1 1-1-1m-194 1 1 1-1-1z"/><path style="fill:#959595;stroke:none" d="m193 216 1 1-1-1z"/><path style="fill:#686868;stroke:none" d="m316 216 1 1-1-1z"/><path style="fill:#b5b5b5;stroke:none" d="m193 217 1 1-1-1z"/><path style="fill:#959595;stroke:none" d="M226 217v3c.696-1.554.696-1.446 0-3z"/><path style="fill:#686868;stroke:none" d="m282 217 1 1-1-1z"/><path style="fill:#828282;stroke:none" d="m316 217 1 1-1-1z"/><path style="fill:#b5b5b5;stroke:none" d="m350 217 1 1-1-1m-192 1 1 1-1-1z"/><path style="fill:#959595;stroke:none" d="M252 218v3c.696-1.554.696-1.446 0-3z"/><path style="fill:#828282;stroke:none" d="M255 218v3c.696-1.554.696-1.446 0-3z"/><path style="fill:#959595;stroke:none" d="m282 218 1 1-1-1z"/><path style="fill:#b5b5b5;stroke:none" d="m316 218 1 1-1-1z"/><path style="fill:#828282;stroke:none" d="m350 218 1 1-1-1m-192 1 1 1-1-1z"/><path style="fill:#b5b5b5;stroke:none" d="m282 219 1 1-1-1z"/><path style="fill:#828282;stroke:none" d="m194 220 1 1-1-1z"/><path style="fill:#b5b5b5;stroke:none" d="m194 221 1 1-1-1z"/><path style="fill:#828282;stroke:none" d="m315 221 1 1-1-1z"/><path style="fill:#959595;stroke:none" d="m349 221 1 1-1-1m-190 1 1 1-1-1m66 0v3c.696-1.554.696-1.446 0-3z"/><path style="fill:#686868;stroke:none" d="m283 222 1 1-1-1z"/><path style="fill:#b5b5b5;stroke:none" d="m315 222 1 1-1-1z"/><path style="fill:#686868;stroke:none" d="m349 222 1 1-1-1m-190 1 1 1-1-1z"/><path style="fill:#b5b5b5;stroke:none" d="M251 223v3c.696-1.554.696-1.446 0-3z"/><path style="fill:#959595;stroke:none" d="M256 223v3c.696-1.554.696-1.446 0-3m27 0 1 1-1-1z"/><path style="fill:#686868;stroke:none" d="m195 224 1 1-1-1z"/><path style="fill:#b5b5b5;stroke:none" d="m283 224 1 1-1-1m65 0 1 1-1-1m-188 1 1 1-1-1z"/><path style="fill:#959595;stroke:none" d="m195 225 1 1-1-1z"/><path style="fill:#686868;stroke:none" d="m314 225 1 1-1-1z"/><path style="fill:#828282;stroke:none" d="m348 225 1 1-1-1m-188 1 1 1-1-1z"/><path style="fill:#959595;stroke:none" d="m314 226 1 1-1-1z"/><path style="fill:#686868;stroke:none" d="m224 227 1 1-1-1m60 0 1 1-1-1z"/><path style="fill:#b5b5b5;stroke:none" d="m314 227 1 1-1-1z"/><path style="fill:#686868;stroke:none" d="m196 228 1 1-1-1z"/><path style="fill:#b5b5b5;stroke:none" d="M224.333 228.667c-.055.055-.111 1.111.334.666.055-.055.111-1.111-.334-.666z"/><path style="fill:#959595;stroke:none" d="m284 228 1 1-1-1m63 0 1 1-1-1m-186 1 1 1-1-1m35 0 1 1-1-1m54.333.667c-.055.055-.111 1.111.334.666.055-.055.111-1.111-.334-.666z"/><path style="fill:#828282;stroke:none" d="M257 229v3c.696-1.554.696-1.446 0-3z"/><path style="fill:#b5b5b5;stroke:none" d="m284 229 1 1-1-1z"/><path style="fill:#686868;stroke:none" d="m313 229 1 1-1-1m34 0 1 1-1-1m-186 1 1 1-1-1z"/><path style="fill:#b5b5b5;stroke:none" d="m196 230 1 1-1-1z"/><path style="fill:#828282;stroke:none" d="m313 230 1 1-1-1z"/><path style="fill:#b5b5b5;stroke:none" d="m313 231 1 1-1-1m33 0 1 1-1-1m-184 1 1 1-1-1z"/><path style="fill:#686868;stroke:none" d="m223 232 1 1-1-1z"/><path style="fill:#828282;stroke:none" d="m285 232 1 1-1-1m61 0 1 1-1-1m-184 1 1 1-1-1m35 0 1 1-1-1z"/><path style="fill:#b5b5b5;stroke:none" d="M223.333 233.667c-.055.055-.111 1.111.334.666.055-.055.111-1.111-.334-.666z"/><path style="fill:#959595;stroke:none" d="m285 233 1 1-1-1z"/><path style="fill:#b5b5b5;stroke:none" d="m197 234 1 1-1-1m52 0v3c.696-1.554.696-1.446 0-3z"/><path style="fill:#959595;stroke:none" d="M258 234v3c.696-1.554.696-1.446 0-3z"/><path style="fill:#828282;stroke:none" d="m312 234 1 1-1-1z"/><path style="fill:#b5b5b5;stroke:none" d="m312 235 1 1-1-1m33 0 1 1-1-1z"/><path style="fill:#959595;stroke:none" d="m163 236 1 1-1-1z"/><path style="fill:#686868;stroke:none" d="m286 236 1 1-1-1m59 0 1 1-1-1m-182 1 1 1-1-1m35 0 1 1-1-1m24 0 1 1-1-1z"/><path style="fill:#828282;stroke:none" d="m286 237 1 1-1-1z"/><path style="fill:#959595;stroke:none" d="m198 238 1 1-1-1z"/><path style="fill:#b5b5b5;stroke:none" d="M222.333 238.667c-.055.055-.111 1.111.334.666.055-.055.111-1.111-.334-.666M286 238l1 1-1-1z"/><path style="fill:#686868;stroke:none" d="m311 238 1 1-1-1z"/><path style="fill:#b5b5b5;stroke:none" d="m344 238 1 1-1-1m-180 1 1 1-1-1m95 0v3c.696-1.554.696-1.446 0-3z"/><path style="fill:#959595;stroke:none" d="m311 239 1 1-1-1m33 0 1 1-1-1z"/><path style="fill:#828282;stroke:none" d="m164 240 1 1-1-1z"/><path style="fill:#959595;stroke:none" d="M248 240v3c.696-1.554.696-1.446 0-3z"/><path style="fill:#b5b5b5;stroke:none" d="m311 240 1 1-1-1z"/><path style="fill:#686868;stroke:none" d="m344 240 1 1-1-1m-145 1 1 1-1-1m88 0 1 1-1-1z"/><path style="fill:#959595;stroke:none" d="m199 242 1 1-1-1z"/><path style="fill:#686868;stroke:none" d="m221 242 1 1-1-1z"/><path style="fill:#828282;stroke:none" d="m287 242 1 1-1-1z"/><path style="fill:#686868;stroke:none" d="m310 242 1 1-1-1z"/><path style="fill:#b5b5b5;stroke:none" d="m343 242 1 1-1-1z"/><path style="fill:#959595;stroke:none" d="m165 243 1 1-1-1z"/><path style="fill:#b5b5b5;stroke:none" d="m199 243 1 1-1-1m22.333.667c-.055.055-.111 1.111.334.666.055-.055.111-1.111-.334-.666M287 243l1 1-1-1z"/><path style="fill:#828282;stroke:none" d="m310 243 1 1-1-1z"/><path style="fill:#686868;stroke:none" d="m343 243 1 1-1-1m-178 1 1 1-1-1z"/><path style="fill:#b5b5b5;stroke:none" d="m310 244 1 1-1-1m-63 1 1 1-1-1m13 0 1 1-1-1m82 0 1 1-1-1m-176 1 1 1-1-1z"/><path style="fill:#828282;stroke:none" d="m200 246 1 1-1-1z"/><path style="fill:#959595;stroke:none" d="m247 246 1 1-1-1m13 0 1 1-1-1z"/><path style="fill:#686868;stroke:none" d="m288 246 1 1-1-1z"/><path style="fill:#959595;stroke:none" d="m342 246 1 1-1-1z"/><path style="fill:#828282;stroke:none" d="m166 247 1 1-1-1z"/><path style="fill:#b5b5b5;stroke:none" d="m200 247 1 1-1-1z"/><path style="fill:#686868;stroke:none" d="m220 247 1 1-1-1m27 0 1 1-1-1m13 0 1 1-1-1z"/><path style="fill:#959595;stroke:none" d="m288 247 1 1-1-1z"/><path style="fill:#828282;stroke:none" d="m309 247 1 1-1-1z"/><path style="fill:#686868;stroke:none" d="m342 247 1 1-1-1z"/><path style="fill:#828282;stroke:none" d="m220 248 1 1-1-1z"/><path style="fill:#b5b5b5;stroke:none" d="m288 248 1 1-1-1m21 0 1 1-1-1m-88.667 1.667c-.055.055-.111 1.111.334.666.055-.055.111-1.111-.334-.666M341 249l1 1-1-1m-174 1 1 1-1-1z"/><path style="fill:#686868;stroke:none" d="m201 250 1 1-1-1z"/><path style="fill:#b5b5b5;stroke:none" d="m246 250 1 1-1-1m15 0 1 1-1-1z"/><path style="fill:#828282;stroke:none" d="m341 250 1 1-1-1z"/><path style="fill:#686868;stroke:none" d="m167 251 1 1-1-1z"/><path style="fill:#959595;stroke:none" d="m201 251 1 1-1-1m45 0 1 1-1-1z"/><path style="fill:#828282;stroke:none" d="m261 251 1 1-1-1z"/><path style="fill:#686868;stroke:none" d="m289 251 1 1-1-1m19 0 1 1-1-1m-62 1 1 1-1-1z"/><path style="fill:#959595;stroke:none" d="m289 252 1 1-1-1m19 0 1 1-1-1z"/><path style="fill:#b5b5b5;stroke:none" d="m168 253 1 1-1-1z"/><path style="fill:#828282;stroke:none" d="m219 253 1 1-1-1z"/><path style="fill:#b5b5b5;stroke:none" d="m289 253 1 1-1-1m19 0 1 1-1-1z"/><path style="fill:#959595;stroke:none" d="m340 253 1 1-1-1z"/><path style="fill:#828282;stroke:none" d="m168 254 1 1-1-1z"/><path style="fill:#686868;stroke:none" d="m202 254 1 1-1-1z"/><path style="fill:#b5b5b5;stroke:none" d="M219.333 254.667c-.055.055-.111 1.111.334.666.055-.055.111-1.111-.334-.666z"/><path style="fill:#686868;stroke:none" d="m340 254 1 1-1-1z"/><path style="fill:#959595;stroke:none" d="m202 255 1 1-1-1z"/><path style="fill:#b5b5b5;stroke:none" d="m245 255 1 1-1-1m17 0 1 1-1-1z"/><path style="fill:#686868;stroke:none" d="m307 255 1 1-1-1z"/><path style="fill:#b5b5b5;stroke:none" d="m202 256 1 1-1-1z"/><path style="fill:#828282;stroke:none" d="m245 256 1 1-1-1m17 0 1 1-1-1z"/><path style="fill:#686868;stroke:none" d="m290 256 1 1-1-1z"/><path style="fill:#828282;stroke:none" d="m307 256 1 1-1-1z"/><path style="fill:#b5b5b5;stroke:none" d="m339 256 1 1-1-1m-170 1 1 1-1-1z"/><path style="fill:#686868;stroke:none" d="m245 257 1 1-1-1z"/><path style="fill:#959595;stroke:none" d="m290 257 1 1-1-1z"/><path style="fill:#b5b5b5;stroke:none" d="m307 257 1 1-1-1z"/><path style="fill:#828282;stroke:none" d="m339 257 1 1-1-1z"/><path style="fill:#686868;stroke:none" d="m169 258 1 1-1-1m49 0 1 1-1-1z"/><path style="fill:#828282;stroke:none" d="m203 259 1 1-1-1z"/><path style="fill:#b5b5b5;stroke:none" d="M218.333 259.667c-.055.055-.111 1.111.334.666.055-.055.111-1.111-.334-.666m45 0c-.055.055-.111 1.111.334.666.055-.055.111-1.111-.334-.666M170 260l1 1-1-1m33 0 1 1-1-1m41 0 1 1-1-1z"/><path style="fill:#828282;stroke:none" d="m306 260 1 1-1-1z"/><path style="fill:#959595;stroke:none" d="m338 260 1 1-1-1m-168 1 1 1-1-1z"/><path style="fill:#828282;stroke:none" d="m244 261 1 1-1-1m19 0 1 1-1-1m28 0 1 1-1-1z"/><path style="fill:#b5b5b5;stroke:none" d="m306 261 1 1-1-1z"/><path style="fill:#686868;stroke:none" d="m338 261 1 1-1-1z"/><path style="fill:#b5b5b5;stroke:none" d="m291 262 1 1-1-1z"/><path style="fill:#686868;stroke:none" d="m204 263 1 1-1-1m13 0 1 1-1-1z"/><path style="fill:#b5b5b5;stroke:none" d="m337 263 1 1-1-1m-166 1 1 1-1-1z"/><path style="fill:#959595;stroke:none" d="m204 264 1 1-1-1z"/><path style="fill:#b5b5b5;stroke:none" d="M217.333 264.667c-.055.055-.111 1.111.334.666.055-.055.111-1.111-.334-.666M264 264l1 1-1-1z"/><path style="fill:#686868;stroke:none" d="m305 264 1 1-1-1z"/><path style="fill:#828282;stroke:none" d="m337 264 1 1-1-1z"/><path style="fill:#686868;stroke:none" d="m171 265 1 1-1-1z"/><path style="fill:#b5b5b5;stroke:none" d="m243 265 1 1-1-1z"/><path style="fill:#959595;stroke:none" d="m264 265 1 1-1-1z"/><path style="fill:#686868;stroke:none" d="m292 265 1 1-1-1z"/><path style="fill:#959595;stroke:none" d="m305 265 1 1-1-1z"/><path style="fill:#828282;stroke:none" d="m243 266 1 1-1-1z"/><path style="fill:#686868;stroke:none" d="m264 266 1 1-1-1z"/><path style="fill:#828282;stroke:none" d="m292 266 1 1-1-1z"/><path style="fill:#b5b5b5;stroke:none" d="m305 266 1 1-1-1m-133 1 1 1-1-1z"/><path style="fill:#686868;stroke:none" d="m205 267 1 1-1-1z"/><path style="fill:#b5b5b5;stroke:none" d="m292 267 1 1-1-1m44 0 1 1-1-1z"/><path style="fill:#959595;stroke:none" d="m172 268 1 1-1-1m33 0 1 1-1-1z"/><path style="fill:#686868;stroke:none" d="m216 268 1 1-1-1m88 0 1 1-1-1m32 0 1 1-1-1m-164 1 1 1-1-1z"/><path style="fill:#b5b5b5;stroke:none" d="m205 269 1 1-1-1m11.333.667c-.055.055-.111 1.111.334.666.055-.055.111-1.111-.334-.666M242 269l1 1-1-1m23 0 1 1-1-1z"/><path style="fill:#828282;stroke:none" d="m304 269 1 1-1-1z"/><path style="fill:#959595;stroke:none" d="m242 270 1 1-1-1m23 0 1 1-1-1z"/><path style="fill:#686868;stroke:none" d="m293 270 1 1-1-1z"/><path style="fill:#b5b5b5;stroke:none" d="m304 270 1 1-1-1m31 0 1 1-1-1m-162 1 1 1-1-1z"/><path style="fill:#828282;stroke:none" d="M206 271v3c.696-1.554.696-1.446 0-3m36 0 1 1-1-1z"/><path style="fill:#686868;stroke:none" d="m265 271 1 1-1-1z"/><path style="fill:#b5b5b5;stroke:none" d="M293.333 271.667c-.055.055-.111 1.111.334.666.055-.055.111-1.111-.334-.666z"/><path style="fill:#959595;stroke:none" d="m335 271 1 1-1-1z"/><path style="fill:#686868;stroke:none" d="m173 272 1 1-1-1z"/><path style="fill:#959595;stroke:none" d="M215 273v3c.696-1.554.696-1.446 0-3z"/><path style="fill:#686868;stroke:none" d="m303 273 1 1-1-1z"/><path style="fill:#b5b5b5;stroke:none" d="m174 274 1 1-1-1m67 0 1 1-1-1m25 0 1 1-1-1z"/><path style="fill:#959595;stroke:none" d="m303 274 1 1-1-1z"/><path style="fill:#b5b5b5;stroke:none" d="m334 274 1 1-1-1z"/><path style="fill:#959595;stroke:none" d="m174 275 1 1-1-1m67 0 1 1-1-1m25 0 1 1-1-1z"/><path style="fill:#828282;stroke:none" d="M294.333 275.667c-.055.055-.111 1.111.334.666.055-.055.111-1.111-.334-.666z"/><path style="fill:#686868;stroke:none" d="m334 275 1 1-1-1m-160 1 1 1-1-1m67 0 1 1-1-1m25 0 1 1-1-1z"/><path style="fill:#828282;stroke:none" d="M207.333 277.667c-.055.055-.111 1.111.334.666.055-.055.111-1.111-.334-.666z"/><path style="fill:#b5b5b5;stroke:none" d="M294.333 277.667c-.055.055-.111 1.111.334.666.055-.055.111-1.111-.334-.666M333 277l1 1-1-1m-158 1 1 1-1-1z"/><path style="fill:#828282;stroke:none" d="M214.333 278.667c-.055.055-.111 1.111.334.666.055-.055.111-1.111-.334-.666z"/><path style="fill:#686868;stroke:none" d="m302 278 1 1-1-1z"/><path style="fill:#959595;stroke:none" d="m333 278 1 1-1-1z"/><path style="fill:#828282;stroke:none" d="m175 279 1 1-1-1z"/><path style="fill:#b5b5b5;stroke:none" d="M207.333 279.667c-.055.055-.111 1.111.334.666.055-.055.111-1.111-.334-.666M240 279l1 1-1-1m27 0 1 1-1-1z"/><path style="fill:#959595;stroke:none" d="m302 279 1 1-1-1z"/><path style="fill:#686868;stroke:none" d="m333 279 1 1-1-1z"/><path style="fill:#b5b5b5;stroke:none" d="M214.333 280.667c-.055.055-.111 1.111.334.666.055-.055.111-1.111-.334-.666z"/><path style="fill:#959595;stroke:none" d="m240 280 1 1-1-1z"/><path style="fill:#828282;stroke:none" d="m267 280 1 1-1-1z"/><path style="fill:#686868;stroke:none" d="m240 281 1 1-1-1z"/><path style="fill:#959595;stroke:none" d="M295.333 281.667c-.055.055-.111 1.111.334.666.055-.055.111-1.111-.334-.666z"/><path style="fill:#b5b5b5;stroke:none" d="m332 281 1 1-1-1z"/><path style="fill:#959595;stroke:none" d="m176 282 1 1-1-1z"/><path style="fill:#828282;stroke:none" d="m332 282 1 1-1-1z"/><path style="fill:#686868;stroke:none" d="m176 283 1 1-1-1z"/><path style="fill:#959595;stroke:none" d="M208 283v3c.696-1.554.696-1.446 0-3z"/><path style="fill:#686868;stroke:none" d="m301 283 1 1-1-1z"/><path style="fill:#959595;stroke:none" d="M213.333 284.667c-.055.055-.111 1.111.334.666.055-.055.111-1.111-.334-.666z"/><path style="fill:#b5b5b5;stroke:none" d="m239 284 1 1-1-1m29 0 1 1-1-1z"/><path style="fill:#959595;stroke:none" d="m301 284 1 1-1-1z"/><path style="fill:#b5b5b5;stroke:none" d="m177 285 1 1-1-1z"/><path style="fill:#959595;stroke:none" d="m239 285 1 1-1-1z"/><path style="fill:#828282;stroke:none" d="m268 285 1 1-1-1z"/><path style="fill:#959595;stroke:none" d="m331 285 1 1-1-1z"/><path style="fill:#828282;stroke:none" d="m177 286 1 1-1-1z"/><path style="fill:#686868;stroke:none" d="m239 286 1 1-1-1z"/><path style="fill:#959595;stroke:none" d="M296.333 286.667c-.055.055-.111 1.111.334.666.055-.055.111-1.111-.334-.666z"/><path style="fill:#686868;stroke:none" d="m331 286 1 1-1-1z"/><path style="fill:#828282;stroke:none" d="M209 288v3c.696-1.554.696-1.446 0-3z"/><path style="fill:#686868;stroke:none" d="m300 288 1 1-1-1z"/><path style="fill:#b5b5b5;stroke:none" d="m330 288 1 1-1-1z"/><path style="fill:#959595;stroke:none" d="m178 289 1 1-1-1z"/><path style="fill:#828282;stroke:none" d="M212.333 289.667c-.055.055-.111 1.111.334.666.055-.055.111-1.111-.334-.666z"/><path style="fill:#b5b5b5;stroke:none" d="m238 289 1 1-1-1m31 0 1 1-1-1z"/><path style="fill:#959595;stroke:none" d="m300 289 1 1-1-1z"/><path style="fill:#828282;stroke:none" d="m330 289 1 1-1-1z"/><path style="fill:#686868;stroke:none" d="m178 290 1 1-1-1z"/><path style="fill:#828282;stroke:none" d="m238 290 1 1-1-1m31 0 1 1-1-1z"/><path style="fill:#b5b5b5;stroke:none" d="m300 290 1 1-1-1z"/><path style="fill:#686868;stroke:none" d="m238 291 1 1-1-1z"/><path style="fill:#959595;stroke:none" d="M297 291v3c.696-1.554.696-1.446 0-3z"/><path style="fill:#b5b5b5;stroke:none" d="m179 292 1 1-1-1z"/><path style="fill:#959595;stroke:none" d="m329 292 1 1-1-1z"/><path style="fill:#828282;stroke:none" d="m179 293 1 1-1-1z"/><path style="fill:#b5b5b5;stroke:none" d="m270 293 1 1-1-1z"/><path style="fill:#686868;stroke:none" d="m299 293 1 1-1-1m30 0 1 1-1-1m-118.333 1.333c-.445.445.611.389.666.334.445-.445-.611-.389-.666-.334z"/><path style="fill:#b5b5b5;stroke:none" d="m237 294 1 1-1-1z"/><path style="fill:#959595;stroke:none" d="m270 294 1 1-1-1m29 0 1 1-1-1z"/><path style="fill:#828282;stroke:none" d="M210.667 295.333c-.445.445.611.389.666.334.445-.445-.611-.389-.666-.334M237 295l1 1-1-1m33 0 1 1-1-1z"/><path style="fill:#b5b5b5;stroke:none" d="m299 295 1 1-1-1m29 0 1 1-1-1z"/><path style="fill:#959595;stroke:none" d="m180 296 1 1-1-1m30.667.333c-.445.445.611.389.666.334.445-.445-.611-.389-.666-.334z"/><path style="fill:#686868;stroke:none" d="m298 296 1 1-1-1z"/><path style="fill:#828282;stroke:none" d="m328 296 1 1-1-1z"/><path style="fill:#686868;stroke:none" d="m180 297 1 1-1-1z"/><path style="fill:#b5b5b5;stroke:none" d="M210.667 297.333c-.445.445.611.389.666.334.445-.445-.611-.389-.666-.334z"/><path style="fill:#959595;stroke:none" d="m298 297 1 1-1-1z"/><path style="fill:#b5b5b5;stroke:none" d="M236.333 298.667c-.055.055-.111 1.111.334.666.055-.055.111-1.111-.334-.666M271 298l1 1-1-1m-90 1 1 1-1-1z"/><path style="fill:#959595;stroke:none" d="m271 299 1 1-1-1z"/><path style="fill:#b5b5b5;stroke:none" d="m327 299 1 1-1-1z"/><path style="fill:#828282;stroke:none" d="m181 300 1 1-1-1m55 0 1 1-1-1z"/><path style="fill:#686868;stroke:none" d="m271 300 1 1-1-1m56 0 1 1-1-1z"/><path style="fill:#b5b5b5;stroke:none" d="m326 302 1 1-1-1z"/><path style="fill:#959595;stroke:none" d="m182 303 1 1-1-1z"/><path style="fill:#b5b5b5;stroke:none" d="m235 303 1 1-1-1m37 0 1 1-1-1z"/><path style="fill:#828282;stroke:none" d="m326 303 1 1-1-1z"/><path style="fill:#686868;stroke:none" d="m182 304 1 1-1-1z"/><path style="fill:#959595;stroke:none" d="m235 304 1 1-1-1m37 0 1 1-1-1z"/><path style="fill:#686868;stroke:none" d="m235 305 1 1-1-1m37 0 1 1-1-1z"/><path style="fill:#b5b5b5;stroke:none" d="m183 306 1 1-1-1m142 0 1 1-1-1z"/><path style="fill:#828282;stroke:none" d="m183 307 1 1-1-1z"/><path style="fill:#686868;stroke:none" d="m325 307 1 1-1-1z"/><path style="fill:#b5b5b5;stroke:none" d="m234 308 1 1-1-1m39 0 1 1-1-1z"/><path style="fill:#959595;stroke:none" d="m234 309 1 1-1-1m39 0 1 1-1-1z"/><path style="fill:#b5b5b5;stroke:none" d="m324 309 1 1-1-1m-140 1 1 1-1-1z"/><path style="fill:#686868;stroke:none" d="m234 310 1 1-1-1m39 0 1 1-1-1z"/><path style="fill:#959595;stroke:none" d="m324 310 1 1-1-1z"/><path style="fill:#686868;stroke:none" d="m184 311 1 1-1-1m140 0 1 1-1-1z"/><path style="fill:#b5b5b5;stroke:none" d="m185 313 1 1-1-1m48 0 1 1-1-1m41 0 1 1-1-1m49 0 1 1-1-1z"/><path style="fill:#828282;stroke:none" d="m185 314 1 1-1-1z"/><path style="fill:#959595;stroke:none" d="m233 314 1 1-1-1z"/><path style="fill:#828282;stroke:none" d="m274 314 1 1-1-1m49 0 1 1-1-1z"/><path style="fill:#686868;stroke:none" d="m233 315 1 1-1-1z"/><path style="fill:#b5b5b5;stroke:none" d="m186 317 1 1-1-1z"/><path style="fill:#959595;stroke:none" d="m322 317 1 1-1-1z"/><path style="fill:#686868;stroke:none" d="m186 318 1 1-1-1z"/><path style="fill:#b5b5b5;stroke:none" d="m232 318 1 1-1-1m43 0 1 1-1-1z"/><path style="fill:#686868;stroke:none" d="m322 318 1 1-1-1z"/><path style="fill:#828282;stroke:none" d="m232 319 1 1-1-1m43 0 1 1-1-1z"/><path style="fill:#b5b5b5;stroke:none" d="m187 320 1 1-1-1z"/><path style="fill:#686868;stroke:none" d="m232 320 1 1-1-1z"/><path style="fill:#b5b5b5;stroke:none" d="m321 320 1 1-1-1z"/><path style="fill:#959595;stroke:none" d="m187 321 1 1-1-1z"/><path style="fill:#828282;stroke:none" d="m321 321 1 1-1-1z"/><path style="fill:#b5b5b5;stroke:none" d="M276.333 322.667c-.055.055-.111 1.111.334.666.055-.055.111-1.111-.334-.666M231 323l1 1-1-1m-43 1 1 1-1-1z"/><path style="fill:#828282;stroke:none" d="m231 324 1 1-1-1m45 0 1 1-1-1z"/><path style="fill:#959595;stroke:none" d="m320 324 1 1-1-1z"/><path style="fill:#686868;stroke:none" d="m188 325 1 1-1-1m132 0 1 1-1-1z"/><path style="fill:#b5b5b5;stroke:none" d="m189 327 1 1-1-1m88 0 1 1-1-1m42 0 1 1-1-1z"/><path style="fill:#959595;stroke:none" d="m189 328 1 1-1-1z"/><path style="fill:#b5b5b5;stroke:none" d="m230 328 1 1-1-1z"/><path style="fill:#959595;stroke:none" d="m277 328 1 1-1-1z"/><path style="fill:#828282;stroke:none" d="m319 328 1 1-1-1m-89 1 1 1-1-1z"/><path style="fill:#686868;stroke:none" d="m277 329 1 1-1-1z"/><path style="fill:#b5b5b5;stroke:none" d="m190 331 1 1-1-1z"/><path style="fill:#959595;stroke:none" d="m318 331 1 1-1-1z"/><path style="fill:#686868;stroke:none" d="m190 332 1 1-1-1z"/><path style="fill:#b5b5b5;stroke:none" d="m229 332 1 1-1-1m49 0 1 1-1-1z"/><path style="fill:#686868;stroke:none" d="m318 332 1 1-1-1z"/><path style="fill:#959595;stroke:none" d="m229 333 1 1-1-1m49 0 1 1-1-1z"/><path style="fill:#b5b5b5;stroke:none" d="m191 334 1 1-1-1z"/><path style="fill:#828282;stroke:none" d="m229 334 1 1-1-1z"/><path style="fill:#686868;stroke:none" d="m278 334 1 1-1-1z"/><path style="fill:#b5b5b5;stroke:none" d="m317 334 1 1-1-1z"/><path style="fill:#959595;stroke:none" d="m191 335 1 1-1-1z"/><path style="fill:#828282;stroke:none" d="m317 335 1 1-1-1z"/><path style="fill:#686868;stroke:none" d="m191 336 1 1-1-1z"/><path style="fill:#b5b5b5;stroke:none" d="m228 337 1 1-1-1m51 0 1 1-1-1m-87 1 1 1-1-1z"/><path style="fill:#959595;stroke:none" d="m228 338 1 1-1-1m51 0 1 1-1-1z"/><path style="fill:#b5b5b5;stroke:none" d="m316 338 1 1-1-1z"/><path style="fill:#828282;stroke:none" d="m192 339 1 1-1-1z"/><path style="fill:#686868;stroke:none" d="m228 339 1 1-1-1m51 0 1 1-1-1m37 0 1 1-1-1z"/><path style="fill:#b5b5b5;stroke:none" d="m193 341 1 1-1-1m122 0 1 1-1-1z"/><path style="fill:#959595;stroke:none" d="m193 342 1 1-1-1z"/><path style="fill:#b5b5b5;stroke:none" d="m227 342 1 1-1-1m53 0 1 1-1-1z"/><path style="fill:#959595;stroke:none" d="m315 342 1 1-1-1z"/><path style="fill:#686868;stroke:none" d="m193 343 1 1-1-1z"/><path style="fill:#959595;stroke:none" d="m227 343 1 1-1-1z"/><path style="fill:#828282;stroke:none" d="m280 343 1 1-1-1z"/><path style="fill:#686868;stroke:none" d="m315 343 1 1-1-1z"/><path style="fill:#959595;stroke:none" d="M194 344c3.699 1.552 8.017 1 12 1h21c-3.699-1.552-8.017-1-12-1h-21m87 0c3.699 1.552 8.017 1 12 1h22c-3.699-1.552-8.017-1-12-1h-22z"/><path style="fill:#272727;stroke:none" d="M0 430v82h79v-82H0m113 0v82h281v-82H113m317 0v82h82v-82h-82z"/></svg>